<?xml version="1.0" encoding="utf-8"?>
<!-- Generator: Adobe Illustrator 24.3.0, SVG Export Plug-In . SVG Version: 6.00 Build 0)  -->
<svg version="1.1" id="katman_1" xmlns="http://www.w3.org/2000/svg" xmlns:xlink="http://www.w3.org/1999/xlink" x="0px" y="0px"
	 viewBox="0 0 156.7 106.5" style="enable-background:new 0 0 156.7 106.5;" xml:space="preserve">
<style type="text/css">
	.st0{fill-rule:evenodd;clip-rule:evenodd;}
</style>
<path class="st0" d="M61.3,44.5v13h3.2h3.2v-5c0-3.3,0-5.1,0-5.3c0.1-0.5,0.2-1,0.5-1.4c0.4-0.7,1.1-1,1.9-0.9c1.1,0.1,1.8,0.7,2,2
	c0,0.2,0,2.2,0,5.4l0,5.1h3.2h3.2v-6c0-5.1,0-6.1-0.1-6.6c-0.2-1.8-0.8-3.2-1.9-4.2c-0.9-0.9-2-1.4-3.3-1.6c-0.5-0.1-1.9,0-2.3,0.1
	c-1.2,0.3-2.1,0.7-2.9,1.6l-0.5,0.4v-4.8v-4.8h-3.2h-3.2V44.5z M129.3,31.7c-0.2,0.4-6.7,16.1-6.7,16.1c0,0,1.7,0,3.8,0l3.8,0
	l3.4-8.1c1.9-4.5,3.4-8.2,3.4-8.2c0,0-1.7,0-3.8,0h-3.8L129.3,31.7z M47.3,39.1c-1.4,0.2-2.5,0.6-3.6,1.3c-2.2,1.4-3.6,3.8-4,6.6
	c-0.2,1.3-0.1,2.9,0.2,4.1c0.8,3.1,2.9,5.5,5.6,6.4c1,0.3,1.4,0.4,2.6,0.4c0.9,0,1.2,0,1.5-0.1c1.3-0.3,2.2-0.8,3-1.6l0.4-0.4v0.8
	v0.8h3.1h3.1v-9v-9h-3.1h-3.1v0.8v0.8l-0.3-0.3c-0.7-0.8-1.7-1.3-3-1.6c-0.4-0.1-0.6-0.1-1.4-0.1C47.8,39.1,47.4,39.1,47.3,39.1z
	 M88.1,39.1c-1.7,0.2-3.5,1-4.8,2c-2.5,2.1-3.8,5.4-3.3,8.8c0.5,3.8,3.2,6.7,7,7.7c0.8,0.2,1.6,0.3,2.6,0.3c1.8,0,3.1-0.3,4.5-1
	c2.8-1.4,4.6-3.9,5-7c0.1-0.8,0.1-2.1,0-2.8c-0.2-1.5-0.8-3-1.7-4.2c-0.4-0.5-1.2-1.4-1.7-1.8c-1.4-1.1-3-1.8-4.8-2
	C90.2,39,88.8,39,88.1,39.1z M108.5,39.1c-1.7,0.2-3.4,0.9-4.7,2c-0.5,0.4-1.4,1.3-1.7,1.8c-0.9,1.2-1.4,2.7-1.7,4.2
	c-0.1,0.7-0.1,2.1,0,2.8c0.6,4,3.5,7.1,7.5,7.9c0.8,0.2,1.2,0.2,2.1,0.2c1.7,0,3.2-0.3,4.6-1.1c3.7-1.9,5.7-6.1,4.8-10.4
	c-0.8-4-4-6.9-8.1-7.4C110.6,39,109.2,39,108.5,39.1z M19,39.5c0,0,1.7,4.1,3.8,9.1c2.1,5,3.8,9.1,3.8,9.1c0,0-0.6,1.5-1.4,3.3
	c-0.8,1.8-1.4,3.2-1.4,3.3s1.5,0,3.4,0l3.4,0l5.1-12.3c2.8-6.8,5.1-12.3,5.1-12.4c0,0-0.7-0.1-3.4,0l-3.4,0l-2.1,5.2
	C31,47.6,30.1,50,30.1,50c0,0-0.9-2.4-2.1-5.2l-2-5.2l-3.5,0C20.6,39.5,19,39.5,19,39.5z M50.4,44.9c1.3,0.3,2.3,1.3,2.7,2.6
	c0.1,0.5,0.1,1.4,0,1.9c-0.3,1.3-1.3,2.3-2.6,2.6c-0.5,0.1-1.4,0.1-1.9,0c-1.1-0.3-2.1-1.1-2.5-2.1c-0.5-1.1-0.3-2.5,0.3-3.5
	C47.3,45.1,48.8,44.6,50.4,44.9z M90.3,45c1.4,0.2,2.5,1.3,2.8,2.7c0.1,0.5,0.1,1.3,0,1.8c-0.3,1.3-1.3,2.2-2.5,2.6
	c-0.4,0.1-1.5,0.1-1.9,0c-1-0.3-1.8-1-2.3-1.9c-0.3-0.6-0.3-0.9-0.3-1.6c0-0.6,0.1-0.9,0.3-1.4c0.3-0.6,0.7-1.2,1.3-1.6
	C88.3,45,89.3,44.8,90.3,45z M110.6,45c1.2,0.2,2.2,1,2.6,2.1c0.2,0.5,0.3,0.8,0.3,1.4c0,0.7-0.1,1-0.3,1.6
	c-0.4,0.9-1.3,1.6-2.3,1.9c-0.4,0.1-1.5,0.1-1.9,0c-1.2-0.3-2.2-1.3-2.5-2.6c-0.1-0.5-0.1-1.4,0-1.9c0.4-1.6,1.8-2.7,3.4-2.7
	C110.1,44.9,110.4,44.9,110.6,45z M124.2,49.4c-1.9,0.2-3.3,1.6-3.7,3.4c-0.1,0.5-0.1,1.4,0,1.9c0.4,1.6,1.6,2.7,3.2,3.1
	c0.2,0,0.6,0.1,0.9,0.1c1.2,0,2.2-0.4,3-1.2c0.9-0.9,1.2-1.8,1.2-3c0-1.5-0.7-2.8-1.9-3.5C126.1,49.5,125,49.3,124.2,49.4z
	 M71.5,59.2c-1.3,0.4-1.9,1.9-1.2,3c0.2,0.3,0.6,0.7,0.9,0.8c0.3,0.1,0.3,0.1,0.9,0.1c0.5,0,0.6,0,0.9-0.1c0.4-0.2,0.8-0.6,1-1
	c0.5-1,0-2.2-1-2.7c-0.3-0.2-0.4-0.2-0.8-0.2C71.8,59.1,71.7,59.1,71.5,59.2z M66.1,59.3c-1.7,0.3-2.8,1.4-3.3,3.2
	c-0.1,0.3-0.1,0.6-0.1,1l0,0.7H62h-0.7l0,1.5l0,1.5l0.7,0l0.7,0v3.6v3.6h1.9h1.9v-3.6v-3.6l1.3,0l1.3,0l0-1.5l0-1.5h-1.3h-1.3l0-0.3
	c0.1-0.7,0.4-1.2,1-1.3c0.4-0.1,1-0.1,1.4,0.1c0.2,0.1,0.3,0.1,0.3,0.1c0,0,0-0.7,0-1.6v-1.6l-0.3-0.1c-0.4-0.2-0.9-0.2-1.6-0.2
	C66.8,59.2,66.4,59.3,66.1,59.3z M81.3,64c-0.8,0.2-1.4,0.6-1.8,1.1l-0.2,0.3v-0.6v-0.6h-1.9h-1.9v5.1v5.1h1.9h1.9l0-2.8
	c0-1.6,0-2.9,0-3.1c0.1-0.4,0.3-0.8,0.5-1c0.5-0.4,1.4-0.3,1.8,0.2c0.3,0.4,0.3,0.4,0.3,3.6l0,3h1.9h1.9v-3.4c0-3.6,0-4-0.2-4.7
	c-0.2-0.6-0.4-1.1-0.9-1.5c-0.4-0.4-0.8-0.7-1.4-0.8C82.7,63.9,81.7,63.9,81.3,64z M90.8,63.9c-0.6,0.1-1.5,0.4-2,0.8
	c-1.1,0.8-1.8,2-2.1,3.5c-0.1,0.6-0.1,1.7,0,2.3c0.2,0.9,0.5,1.8,1,2.4c0.7,0.9,1.6,1.5,2.7,1.7c0.6,0.1,1.6,0.1,2.1-0.1
	c0.6-0.2,1-0.4,1.5-0.8l0.4-0.4v0.5v0.5h1.9h1.9v-5.1v-5.1h-1.9h-1.9v0.5v0.5L94.1,65c-0.5-0.5-1.2-0.9-2-1
	C91.8,63.9,91.1,63.9,90.8,63.9z M105.3,64c-0.7,0.1-1.4,0.6-1.8,1.1l-0.2,0.2v-0.6v-0.6l-1.9,0l-1.9,0l0,5.1l0,5.1h1.9h1.9l0-2.9
	c0-3.1,0-3.1,0.2-3.6c0.2-0.4,0.6-0.6,1-0.6c0.4,0,0.6,0.1,0.9,0.3c0.4,0.4,0.4,0.3,0.4,3.7l0,3h1.9h1.9l0-3.7c0-3.7,0-3.7-0.1-4.1
	c-0.1-0.2-0.2-0.6-0.3-0.9c-0.2-0.4-0.3-0.5-0.6-0.8c-0.4-0.4-0.7-0.6-1.1-0.8C106.8,63.9,106,63.8,105.3,64z M115.2,64
	c-1.7,0.3-3,1.1-3.8,2.5c-0.2,0.4-0.4,0.9-0.6,1.4c-0.1,0.5-0.1,0.6-0.1,1.4c0,0.9,0,1.2,0.3,1.9c0.6,1.7,2,3,3.9,3.4
	c0.3,0.1,0.6,0.1,1.3,0.1c1,0,1.4-0.1,2.1-0.4l0.4-0.2l0-1.7l0-1.7l-0.3,0.2c-0.5,0.3-0.8,0.4-1.4,0.4c-0.6,0-0.9,0-1.3-0.2
	c-0.4-0.2-0.7-0.5-0.9-0.9c-0.1-0.3-0.1-0.3-0.1-0.8c0-0.4,0-0.5,0.1-0.8c0.3-0.8,1-1.2,2-1.3c0.7,0,1,0,2,0.5c0,0,0-0.8,0-1.7v-1.7
	l-0.3-0.1C117.4,63.9,116.2,63.8,115.2,64z M123.8,64c-2.9,0.5-4.7,3-4.5,5.9c0.1,1,0.4,1.9,0.9,2.6c0.7,1.1,1.8,1.8,3.2,2.1
	c0.6,0.1,2.2,0.1,2.9,0c1-0.2,1.9-0.7,2.6-1.4c0.3-0.3,0.8-1,0.8-1c0,0-0.7-0.3-1.6-0.6l-1.6-0.6l-0.2,0.2c-0.3,0.3-0.5,0.4-0.9,0.5
	c-1.1,0.3-2.2-0.3-2.4-1.3l0-0.2l3.5,0l3.5,0l0-0.9c0-0.6,0-1-0.1-1.2c-0.2-1.2-0.7-2-1.4-2.8c-0.7-0.7-1.5-1.1-2.6-1.3
	C125.5,63.9,124.3,63.9,123.8,64z M70.2,69.3v5.1h1.9H74v-5.1v-5.1h-1.9h-1.9V69.3z M125.3,66.8c0.3,0.1,0.4,0.2,0.7,0.4
	c0.2,0.2,0.4,0.4,0.4,0.7l0,0.2h-1.7c-1.9,0-1.8,0-1.6-0.4C123.4,67,124.3,66.6,125.3,66.8z M93,67.3c0.5,0.1,1.1,0.6,1.3,1.1
	c0.5,1.1,0,2.4-1.2,2.8c-0.4,0.1-1,0.1-1.4,0c-0.6-0.2-1.2-0.7-1.3-1.3c-0.1-0.3-0.1-0.4-0.1-0.7c0-0.4,0-0.5,0.2-0.8
	C90.9,67.5,91.9,67.1,93,67.3z"/>
</svg>
